<?xml version="1.0" encoding="utf-8"?>
<!-- Generator: Adobe Illustrator 23.0.2, SVG Export Plug-In . SVG Version: 6.00 Build 0)  -->
<svg version="1.1" id="Layer_1" xmlns="http://www.w3.org/2000/svg" xmlns:xlink="http://www.w3.org/1999/xlink" x="0px" y="0px"
	 viewBox="0 0 20 26" style="enable-background:new 0 0 20 26;" xml:space="preserve">
<style type="text/css">
	.st0{fill:#060507;}
	.st1{font-family:'MyriadPro-Regular';}
	.st2{font-size:3.7px;}
</style>
<g>
	<path class="st0" d="M17.3,4.2C17,4,16.8,3.7,16.5,3.5C16.3,3.2,16,3,15.8,2.7C14.1,1,13.1,0,12,0H4C1.8,0,0,1.8,0,4v18
		c0,2.2,1.8,4,4,4h12c2.2,0,4-1.8,4-4V8C20,6.9,19,5.9,17.3,4.2z M18,22c0,1.1-0.9,2-2,2H4c-1.1,0-2-0.9-2-2V4c0-1.1,0.9-2,2-2
		l7.3,0C12,2.2,12,3.1,12,4v3c0,0.6,0.4,1,1,1h3c1,0,2,0,2,1V22z"/>
</g>
<text transform="matrix(6.123234e-17 -1 1 6.123234e-17 5.591 22.9073)" class="st1 st2">SVG                  </text>
</svg>
